<svg width="220" height="120" viewBox="0 0 220 120" fill="none" xmlns="http://www.w3.org/2000/svg">
  <defs>
    <filter id="shadow" x="0" y="0" width="220" height="120" filterUnits="userSpaceOnUse" color-interpolation-filters="sRGB">
      <feOffset dy="4"/>
      <feGaussianBlur stdDeviation="4"/>
      <feColorMatrix type="matrix" values="0 0 0 0 0.12 0 0 0 0 0.05 0 0 0 0 0.03 0 0 0 0.28 0"/>
      <feBlend in="SourceGraphic"/>
    </filter>
    <linearGradient id="skin" x1="26" y1="24" x2="180" y2="104" gradientUnits="userSpaceOnUse">
      <stop stop-color="#8B5A43"/>
      <stop offset="0.45" stop-color="#6F4331"/>
      <stop offset="1" stop-color="#4F2D22"/>
    </linearGradient>
    <linearGradient id="highlight" x1="46" y1="22" x2="158" y2="88" gradientUnits="userSpaceOnUse">
      <stop stop-color="#B27759" stop-opacity="0.72"/>
      <stop offset="1" stop-color="#B27759" stop-opacity="0"/>
    </linearGradient>
  </defs>
  <g filter="url(#shadow)">
    <path d="M20 77C20 68 26 61 34 58L55 50C62 48 69 51 73 57L81 68C84 72 89 75 94 76L113 81C118 83 122 86 125 91C129 98 126 106 118 108L78 117C64 120 49 116 38 107L25 96C21 93 18 88 18 83L20 77Z" fill="url(#skin)"/>
    <path d="M54 35C62 28 74 28 81 35C87 41 88 50 85 58L79 73C76 80 67 84 59 81C50 78 45 68 48 59L54 35Z" fill="url(#skin)"/>
    <path d="M86 22C95 15 108 16 115 24C121 30 123 39 121 47L115 68C112 76 103 81 95 78C86 76 80 66 82 58L86 22Z" fill="url(#skin)"/>
    <path d="M119 19C128 12 141 14 147 22C153 29 154 39 152 48L146 70C143 79 134 84 125 82C116 79 111 69 113 60L119 19Z" fill="url(#skin)"/>
    <path d="M152 27C160 21 171 22 177 30C182 36 183 45 181 53L175 71C172 79 164 83 156 81C148 79 142 70 144 62L152 27Z" fill="url(#skin)"/>
    <path d="M182 46C189 42 198 43 204 49C209 54 211 61 210 68L206 85C204 92 197 97 190 96C182 95 176 88 176 80L178 57C178 52 180 48 182 46Z" fill="url(#skin)"/>
    <path d="M52 37C59 31 69 31 75 36" stroke="#3C2119" stroke-width="3" stroke-linecap="round" opacity="0.5"/>
    <path d="M85 24C92 19 102 19 108 25" stroke="#3C2119" stroke-width="3" stroke-linecap="round" opacity="0.5"/>
    <path d="M119 21C126 16 136 17 142 23" stroke="#3C2119" stroke-width="3" stroke-linecap="round" opacity="0.5"/>
    <path d="M151 29C157 25 165 25 171 30" stroke="#3C2119" stroke-width="3" stroke-linecap="round" opacity="0.5"/>
    <path d="M180 49C186 46 193 47 198 52" stroke="#3C2119" stroke-width="3" stroke-linecap="round" opacity="0.5"/>
    <path d="M37 66C46 75 58 80 70 82C84 84 97 88 108 96" stroke="#3C2119" stroke-width="4" stroke-linecap="round" opacity="0.45"/>
    <path d="M30 81C47 97 71 104 93 101C107 99 117 95 125 89" stroke="url(#highlight)" stroke-width="18" stroke-linecap="round" opacity="0.45"/>
  </g>
</svg>
